<svg width="16" height="16" viewBox="0 0 16 16" fill="none" xmlns="http://www.w3.org/2000/svg">
<path fill-rule="evenodd" clip-rule="evenodd" d="M8 16C12.4183 16 16 12.4183 16 8C16 3.58172 12.4183 0 8 0C3.58172 0 0 3.58172 0 8C0 12.4183 3.58172 16 8 16ZM8 14.6667C11.6819 14.6667 14.6667 11.6819 14.6667 8C14.6667 4.3181 11.6819 1.33333 8 1.33333C4.3181 1.33333 1.33333 4.3181 1.33333 8C1.33333 11.6819 4.3181 14.6667 8 14.6667Z" fill="url(#paint0_angular_2_221)"/>
<path fill-rule="evenodd" clip-rule="evenodd" d="M15.1877 6.40047C15.5529 6.35335 15.8871 6.61119 15.9342 6.97635C15.978 7.31581 16 7.65773 16 8C16 8.36819 15.7015 8.66667 15.3333 8.66667C14.9651 8.66667 14.6667 8.36819 14.6667 8C14.6667 7.71477 14.6484 7.42984 14.6119 7.14696C14.5647 6.78179 14.8226 6.44758 15.1877 6.40047Z" fill="#FFC802"/>
<defs>
<radialGradient id="paint0_angular_2_221" cx="0" cy="0" r="1" gradientUnits="userSpaceOnUse" gradientTransform="translate(8 8) scale(8)">
<stop stop-color="#FFC800" stop-opacity="0"/>
<stop offset="1" stop-color="#FFC802"/>
</radialGradient>
</defs>
</svg>
